<svg width="13" height="16" viewBox="0 0 13 16" fill="none" xmlns="http://www.w3.org/2000/svg">
<path opacity="0.5" fill-rule="evenodd" clip-rule="evenodd" d="M12.7083 1.89272C12.5381 1.60202 12.2775 1.3506 11.943 1.13814C11.7692 0.484048 11.18 0 10.4723 0C9.62844 0 8.94471 0.685039 8.94471 1.52899C8.94471 2.37364 9.62948 3.05798 10.4723 3.05798C10.7989 3.05798 11.1018 2.95262 11.3499 2.77701C11.4802 3.15431 11.3291 4.21629 10.554 5.57003C9.71043 7.04303 8.78177 7.72981 8.4201 7.72981C7.95178 7.72981 6.78861 6.70573 5.95689 5.03834C5.36523 3.85117 5.30999 3.02321 5.45729 2.7951C5.70223 2.96097 5.99615 3.05798 6.31369 3.05798C7.15758 3.05798 7.8413 2.37329 7.8413 1.52899C7.84165 0.684691 7.15758 0 6.31369 0C5.56847 0 4.94971 0.534469 4.81491 1.24072C4.55574 1.40972 4.3445 1.60167 4.18365 1.81587C3.33455 2.94671 4.03148 4.76919 4.52377 5.75467C5.07339 6.85734 6.24525 8.58733 7.57934 9.14892V12.1909C7.57934 13.818 6.50929 14.3973 5.50837 14.3973C4.50814 14.3973 3.43808 13.818 3.43808 12.1909V11.5504C4.4661 11.2009 5.20924 10.2279 5.20924 9.0825C5.20924 7.64496 4.04086 6.47553 2.60427 6.47553C1.16838 6.47553 0 7.64496 0 9.0825C0 10.2519 0.774402 11.2447 1.83612 11.573V12.1899C1.83612 14.4331 3.34671 16 5.50837 16C7.67176 16 9.18235 14.4331 9.18235 12.1899V9.18091C10.5307 8.66591 11.6077 6.95645 11.9443 6.36808C12.3366 5.68373 13.5519 3.33583 12.7083 1.89272ZM2.60548 8.07812C3.15788 8.07812 3.60779 8.52775 3.60779 9.08065C3.60779 9.63389 3.15788 10.0835 2.60548 10.0835C2.05273 10.0835 1.60352 9.63389 1.60352 9.08065C1.60352 8.52775 2.05273 8.07812 2.60548 8.07812Z" fill="#0BA0B5"/>
</svg>
