<svg width="20" height="20" viewBox="0 0 20 20" fill="none" xmlns="http://www.w3.org/2000/svg">
<path d="M7.125 7H11.125M7.125 13H10.125M7.125 10H13.125" stroke="#000000" stroke-width="1.5" stroke-linecap="round"/>
<path d="M1.47788 6.95043C2.12937 4.17301 4.29801 2.00437 7.07543 1.35288C9.08126 0.882374 11.1687 0.882375 13.1746 1.35288C15.952 2.00437 18.1206 4.17301 18.7721 6.95044C19.2426 8.95626 19.2426 11.0437 18.7721 13.0496C18.1206 15.827 15.952 17.9956 13.1746 18.6471C11.1687 19.1176 9.08126 19.1176 7.07544 18.6471C4.29801 17.9956 2.12937 15.827 1.47788 13.0496C1.00737 11.0437 1.00737 8.95626 1.47788 6.95043Z" stroke="#000000" stroke-width="1.5"/>
</svg>
