<svg width="16" height="16" viewBox="0 0 16 16" fill="none" xmlns="http://www.w3.org/2000/svg">
<g opacity="0.5">
<path d="M6.10514 13.8476V11.8031C6.10512 11.2831 6.52907 10.8606 7.05433 10.8571H8.97838C9.50615 10.8571 9.934 11.2806 9.934 11.8031V11.8031V13.854C9.93387 14.2955 10.2898 14.6563 10.7357 14.6667H12.0184C13.2971 14.6667 14.3337 13.6405 14.3337 12.3746V12.3746V6.55856C14.3268 6.06055 14.0906 5.5929 13.6923 5.28869L9.30547 1.7902C8.53695 1.18105 7.44446 1.18105 6.67594 1.7902L2.30834 5.29504C1.9085 5.59802 1.67192 6.06645 1.66699 6.56491V12.3746C1.66699 13.6405 2.70358 14.6667 3.98227 14.6667H5.26497C5.72189 14.6667 6.09231 14.3 6.09231 13.8476V13.8476" stroke="#0BA0B5" stroke-width="1.5" stroke-linecap="round" stroke-linejoin="round"/>
</g>
</svg>
