<svg width="23" height="23" viewBox="0 0 23 23" fill="none" xmlns="http://www.w3.org/2000/svg">
<circle cx="11.5" cy="11.5" r="10.5" fill="#0BA0B5" stroke="#F3F3F5" stroke-width="2"/>
<path d="M11.8801 13.4343H11.1461L10.9363 7H12.0637L11.8801 13.4343ZM11.5 16C11.3165 16 11.1548 15.9335 11.015 15.8006C10.8839 15.6588 10.8184 15.4948 10.8184 15.3087C10.8184 15.1226 10.8839 14.9631 11.015 14.8301C11.1548 14.6972 11.3165 14.6307 11.5 14.6307C11.6923 14.6307 11.8539 14.6972 11.985 14.8301C12.1161 14.9631 12.1816 15.1226 12.1816 15.3087C12.1816 15.4948 12.1161 15.6588 11.985 15.8006C11.8539 15.9335 11.6923 16 11.5 16Z" fill="white"/>
</svg>
