<svg width="168" height="32" viewBox="0 0 168 32" fill="none" xmlns="http://www.w3.org/2000/svg">
<path fill-rule="evenodd" clip-rule="evenodd" d="M16.5129 8.24526V8.24933C18.78 9.53409 20.4738 11.7129 21.1153 14.3065H23.3374C22.6929 11.0737 20.7263 8.31775 18.0251 6.62611L16.5129 8.24526ZM0.217122 14.3065C0.820917 11.2776 2.5854 8.66721 5.0273 6.95866V9.77078C3.78371 10.9958 2.87197 12.5567 2.43919 14.3065H0.217122ZM21.2782 15.1125C21.3304 15.4431 21.3657 15.7792 21.3833 16.12H23.5545C23.5402 15.7803 23.5115 15.4443 23.4691 15.1125H21.2782ZM11.7772 26.2428C16.5051 26.2428 20.4363 22.8319 21.2442 18.3366H23.4415C22.674 23.6096 18.4157 27.7507 13.0868 28.3397V30.2251C13.0868 31.0041 12.4553 31.6356 11.6763 31.6356C10.8973 31.6356 10.2658 31.0041 10.2658 30.2251V28.3156C5.03155 27.6457 0.870784 23.5428 0.112959 18.3366H2.31026C3.11817 22.8319 7.04937 26.2428 11.7772 26.2428ZM0 16.12H2.17119C2.18878 15.7792 2.2241 15.4431 2.27626 15.1125H0.0854024C0.0429494 15.4443 0.0142843 15.7803 0 16.12Z" fill="#0BA0B5"/>
<path fill-rule="evenodd" clip-rule="evenodd" d="M5.22754 10.9681C3.85026 12.4939 3.01172 14.5155 3.01172 16.7329C3.01172 21.4862 6.86506 25.3396 11.6184 25.3396C16.3717 25.3396 20.2251 21.4862 20.2251 16.7329C20.2251 14.0699 19.0157 11.6894 17.1161 10.1106V11.0546C18.5998 12.4914 19.522 14.5044 19.522 16.7329C19.522 21.0979 15.9835 24.6365 11.6184 24.6365C7.25335 24.6365 3.71477 21.0979 3.71477 16.7329C3.71477 14.9943 4.27615 13.3868 5.22754 12.0818V10.9681Z" fill="#0BA0B5"/>
<path d="M44.3809 16.9045C44.3809 18.6036 43.79 19.9456 42.608 20.9306C41.426 21.9156 39.7454 22.4511 37.5661 22.5373V23.904H35.3499V22.5373C33.1706 22.4265 31.4839 21.8848 30.2896 20.9121C29.1076 19.9394 28.5166 18.6036 28.5166 16.9045C28.5166 15.2054 29.1076 13.8695 30.2896 12.8968C31.4839 11.9118 33.1706 11.364 35.3499 11.2531V9.94189H37.5661V11.2531C39.7454 11.364 41.426 11.9118 42.608 12.8968C43.79 13.8695 44.3809 15.2054 44.3809 16.9045ZM37.5661 20.6535C39.0436 20.5427 40.164 20.1734 40.9274 19.5454C41.6907 18.9052 42.0724 18.0187 42.0724 16.886C42.0724 15.7533 41.6846 14.8729 40.9089 14.245C40.1455 13.6171 39.0313 13.2539 37.5661 13.1554V20.6535ZM30.8621 16.9045C30.8621 18.0249 31.2438 18.8991 32.0071 19.527C32.7828 20.1549 33.8971 20.5304 35.3499 20.6535V13.1554C32.358 13.377 30.8621 14.6267 30.8621 16.9045Z" fill="#0BA0B5"/>
<path d="M55.2758 13.5248V23.3869H52.9673V15.4824H49.2736L49.1813 17.4401C49.1197 18.7451 48.9966 19.8409 48.8119 20.7274C48.6395 21.6016 48.3379 22.2972 47.907 22.8143C47.4883 23.3192 46.9097 23.5716 46.1709 23.5716C45.8262 23.5716 45.4014 23.5038 44.8966 23.3684L45.0074 21.4292C45.1798 21.4662 45.3275 21.4846 45.4507 21.4846C45.9185 21.4846 46.2694 21.2999 46.5034 20.9306C46.7373 20.5489 46.885 20.0995 46.9466 19.5824C47.0205 19.053 47.082 18.3019 47.1313 17.3292L47.2975 13.5248H55.2758Z" fill="#0BA0B5"/>
<path d="M67.6191 18.5112C67.6191 18.6713 67.6068 18.8991 67.5821 19.1945H59.8439C59.9793 19.921 60.3302 20.4996 60.8966 20.9306C61.4753 21.3492 62.1894 21.5585 63.0389 21.5585C64.1224 21.5585 65.015 21.2014 65.7168 20.4873L66.9542 21.9094C66.511 22.4388 65.9508 22.839 65.2736 23.1098C64.5964 23.3807 63.833 23.5161 62.9835 23.5161C61.9 23.5161 60.9458 23.3007 60.1209 22.8698C59.296 22.4388 58.6557 21.8417 58.2002 21.0783C57.757 20.3026 57.5353 19.4285 57.5353 18.4558C57.5353 17.4955 57.7508 16.6336 58.1817 15.8702C58.625 15.0946 59.2344 14.4913 60.0101 14.0603C60.7858 13.6294 61.6599 13.4139 62.6326 13.4139C63.593 13.4139 64.4487 13.6294 65.1997 14.0603C65.9631 14.479 66.5541 15.0761 66.9727 15.8518C67.4036 16.6151 67.6191 17.5016 67.6191 18.5112ZM62.6326 15.2608C61.8939 15.2608 61.2659 15.4824 60.7488 15.9256C60.244 16.3566 59.9362 16.9352 59.8254 17.6617H65.4213C65.3228 16.9476 65.0212 16.3689 64.5164 15.9256C64.0116 15.4824 63.3837 15.2608 62.6326 15.2608Z" fill="#0BA0B5"/>
<path d="M75.4814 14.0049C76.4171 14.0049 77.2421 14.2081 77.9562 14.6144C78.6703 15.0084 79.2243 15.5624 79.6183 16.2765C80.0246 16.9907 80.2278 17.8094 80.2278 18.7328C80.2278 19.6809 80.0062 20.5243 79.5629 21.263C79.1197 21.9894 78.4979 22.5558 77.6976 22.9621C76.8973 23.3684 75.9862 23.5716 74.9643 23.5716C73.2529 23.5716 71.9293 23.0052 70.9936 21.8725C70.0579 20.7397 69.59 19.1084 69.59 16.9783C69.59 14.9961 70.0148 13.4263 70.8643 12.2689C71.7139 11.1116 73.0128 10.3482 74.7611 9.97882L79.3413 9L79.6737 11.0685L75.5183 11.918C74.3241 12.1642 73.4314 12.5829 72.8404 13.1739C72.2494 13.7648 71.9047 14.5959 71.8062 15.6671C72.2494 15.1377 72.785 14.7314 73.4129 14.4482C74.0409 14.1527 74.7304 14.0049 75.4814 14.0049ZM75.0197 21.7062C75.8692 21.7062 76.5526 21.4354 77.0697 20.8936C77.5991 20.3396 77.8638 19.6378 77.8638 18.7882C77.8638 17.9387 77.5991 17.2554 77.0697 16.7383C76.5526 16.2211 75.8692 15.9626 75.0197 15.9626C74.1578 15.9626 73.4622 16.2211 72.9328 16.7383C72.4033 17.2554 72.1386 17.9387 72.1386 18.7882C72.1386 19.6501 72.4033 20.3519 72.9328 20.8936C73.4745 21.4354 74.1701 21.7062 75.0197 21.7062Z" fill="#0BA0B5"/>
<path d="M86.8578 23.5161C85.8605 23.5161 84.9617 23.3007 84.1614 22.8698C83.3611 22.4388 82.7332 21.8417 82.2776 21.0783C81.8344 20.3026 81.6128 19.4285 81.6128 18.4558C81.6128 17.4831 81.8344 16.6151 82.2776 15.8518C82.7332 15.0884 83.3611 14.4913 84.1614 14.0603C84.9617 13.6294 85.8605 13.4139 86.8578 13.4139C87.8674 13.4139 88.7723 13.6294 89.5726 14.0603C90.3729 14.4913 90.9947 15.0884 91.4379 15.8518C91.8935 16.6151 92.1213 17.4831 92.1213 18.4558C92.1213 19.4285 91.8935 20.3026 91.4379 21.0783C90.9947 21.8417 90.3729 22.4388 89.5726 22.8698C88.7723 23.3007 87.8674 23.5161 86.8578 23.5161ZM86.8578 21.54C87.7073 21.54 88.4091 21.2568 88.9632 20.6905C89.5172 20.1241 89.7943 19.3792 89.7943 18.4558C89.7943 17.5324 89.5172 16.7875 88.9632 16.2211C88.4091 15.6548 87.7073 15.3716 86.8578 15.3716C86.0082 15.3716 85.3064 15.6548 84.7524 16.2211C84.2107 16.7875 83.9398 17.5324 83.9398 18.4558C83.9398 19.3792 84.2107 20.1241 84.7524 20.6905C85.3064 21.2568 86.0082 21.54 86.8578 21.54Z" fill="#0BA0B5"/>
<path d="M99.4252 17.9387H97.0243V23.3869H94.6604V10.459H97.0243V15.8702H99.4991L103.211 10.459H105.76L101.346 16.7198L105.926 23.3869H103.211L99.4252 17.9387Z" fill="#0BA0B5"/>
<path d="M116.488 13.5248V23.3869H114.18V15.4824H110.486L110.394 17.4401C110.332 18.7451 110.209 19.8409 110.024 20.7274C109.852 21.6016 109.55 22.2972 109.12 22.8143C108.701 23.3192 108.122 23.5716 107.384 23.5716C107.039 23.5716 106.614 23.5038 106.109 23.3684L106.22 21.4292C106.392 21.4662 106.54 21.4846 106.663 21.4846C107.131 21.4846 107.482 21.2999 107.716 20.9306C107.95 20.5489 108.098 20.0995 108.159 19.5824C108.233 19.053 108.295 18.3019 108.344 17.3292L108.51 13.5248H116.488Z" fill="#0BA0B5"/>
<path d="M119.597 13.5248H121.906V20.0256L127.354 13.5248H129.46V23.3869H127.151V16.886L121.721 23.3869H119.597V13.5248Z" fill="#0BA0B5"/>
<path d="M132.565 13.5248H134.874V17.5324H139.842V13.5248H142.15V23.3869H139.842V19.49H134.874V23.3869H132.565V13.5248Z" fill="#0BA0B5"/>
<path d="M145.244 13.5248H147.553V20.0256L153.001 13.5248H155.106V23.3869H152.798V16.886L147.368 23.3869H145.244V13.5248Z" fill="#0BA0B5"/>
<path d="M162.312 19.4346H160.52V23.3869H158.212V13.5248H160.52V17.5139H162.367L165.285 13.5248H167.76L164.177 18.2711L168 23.3869H165.285L162.312 19.4346Z" fill="#0BA0B5"/>
<path d="M15.2615 1.2648C15.3806 0.734046 15.5257 0.222234 15.5843 0.127327C15.8098 -0.23739 16.0661 0.221831 16.0661 0.99096C16.0661 2.05186 15.7957 2.53264 13.8645 4.90492C12.8804 6.11372 12.2376 7.08657 12.2376 7.36686C12.2376 7.80895 12.2632 7.81681 12.7917 7.53833C13.0964 7.37754 14.0023 6.64347 14.8045 5.90678C15.8469 4.94965 16.3901 4.58594 16.7079 4.63208C17.1367 4.69435 17.1288 4.72397 16.4854 5.45501C16.1185 5.87212 14.9899 6.76538 13.9776 7.44C11.6426 8.99579 11.4846 9.14087 10.9264 10.2415C10.1021 11.8672 9.7414 13.9888 10.0021 15.6786L10.142 16.5853L10.5007 15.3763C11.3061 12.6597 13.5498 9.83504 14.902 9.83504C15.4618 9.83504 15.3232 10.2225 14.628 10.6001C13.719 11.0938 12.9201 11.793 13.0809 11.9542C13.1568 12.0304 13.4264 11.9474 13.6799 11.7699C14.1877 11.4142 15.1686 11.3376 15.355 11.6391C15.4203 11.7449 15.1309 11.925 14.712 12.0397C12.8931 12.5374 11.8755 13.6827 11.32 15.8573C10.816 17.8298 11.2101 19.7054 12.5888 21.8967C13.3269 23.07 13.3172 23.3235 12.5473 22.9727C10.6254 22.097 7.59158 14.4962 7.08944 9.29844C6.91172 7.46055 7.24278 5.95534 7.92265 5.51002C8.37119 5.21603 8.40907 5.21785 8.40907 5.5342C8.40907 5.72281 8.30107 6.17598 8.16888 6.54131C8.0369 6.90663 7.97846 7.25522 8.03932 7.31588C8.24102 7.51778 8.75182 7.20102 9.01357 6.71178C9.30273 6.17155 9.80104 5.90738 10.0537 6.16007C10.1456 6.25195 9.84859 6.73092 9.39381 7.2246C8.46892 8.22847 8.00728 9.14329 8.00345 9.97972C8.00002 10.7162 8.64523 13.4621 8.82154 13.4621C8.89711 13.4621 9.01237 13.0707 9.07806 12.5926C9.26122 11.2558 10.4458 8.65022 11.8102 6.58261C12.5223 5.50358 13.0414 4.49708 13.0384 4.20148C13.0355 3.91978 12.7184 3.19498 12.3335 2.59088C11.8676 1.85943 11.701 1.42499 11.8348 1.2912C12.0784 1.04758 12.3702 1.30853 12.4699 1.85903C12.5084 2.07161 12.6452 2.28037 12.774 2.32329C12.9372 2.37769 12.9753 2.15685 12.8999 1.59405C12.771 0.633095 12.9541 -0.00707441 13.2683 0.307066C13.3845 0.423332 13.4948 1.26964 13.5135 2.18767C13.5345 3.22117 13.634 3.88593 13.775 3.93308C14.097 4.04048 15.0046 2.41114 15.2615 1.2648Z" fill="#0BA0B5"/>
</svg>
