<svg width="29" height="29" viewBox="0 0 29 29" fill="none" xmlns="http://www.w3.org/2000/svg">
<rect x="1" width="28" height="2" fill="#0BA0B5"/>
<rect x="1" y="6" width="28" height="2" fill="#0BA0B5"/>
<rect x="1" y="12" width="28" height="2" fill="#0BA0B5"/>
<path d="M6.96824 27V21.94L4.87824 25.78H4.21824L2.11824 21.94V27H0.998242V19.9H2.19824L4.54824 24.24L6.89824 19.9H8.09824V27H6.96824ZM11.8415 27.1C11.4349 27.1 11.0649 27.03 10.7315 26.89C10.4049 26.7433 10.1215 26.5467 9.88152 26.3C9.64152 26.0467 9.45486 25.76 9.32152 25.44C9.19486 25.1133 9.13152 24.7667 9.13152 24.4C9.13152 23.9067 9.24486 23.4567 9.47152 23.05C9.69819 22.6367 10.0149 22.3067 10.4215 22.06C10.8282 21.8067 11.3049 21.68 11.8515 21.68C12.3982 21.68 12.8682 21.8067 13.2615 22.06C13.6615 22.3067 13.9715 22.6333 14.1915 23.04C14.4115 23.4467 14.5215 23.8833 14.5215 24.35C14.5215 24.43 14.5182 24.5067 14.5115 24.58C14.5049 24.6467 14.4982 24.7033 14.4915 24.75H10.3015C10.3215 25.0567 10.4049 25.3267 10.5515 25.56C10.7049 25.7867 10.8982 25.9667 11.1315 26.1C11.3649 26.2267 11.6149 26.29 11.8815 26.29C12.1749 26.29 12.4515 26.2167 12.7115 26.07C12.9782 25.9233 13.1582 25.73 13.2515 25.49L14.1915 25.76C14.0782 26.0133 13.9049 26.2433 13.6715 26.45C13.4449 26.65 13.1749 26.81 12.8615 26.93C12.5482 27.0433 12.2082 27.1 11.8415 27.1ZM10.2715 24.02H13.4315C13.4115 23.72 13.3249 23.4567 13.1715 23.23C13.0249 22.9967 12.8349 22.8167 12.6015 22.69C12.3749 22.5567 12.1215 22.49 11.8415 22.49C11.5682 22.49 11.3149 22.5567 11.0815 22.69C10.8549 22.8167 10.6682 22.9967 10.5215 23.23C10.3749 23.4567 10.2915 23.72 10.2715 24.02ZM15.4188 27V21.77H16.5188V23.85H18.9488V21.77H20.0488V27H18.9488V24.8H16.5188V27H15.4188ZM25.8758 27.1C25.4158 27.1 25.0058 27.0033 24.6458 26.81C24.2925 26.6167 24.0058 26.3533 23.7858 26.02C23.5725 25.68 23.4358 25.2967 23.3758 24.87H22.4758V27H21.3758V21.77H22.4758V23.91H23.3758C23.4358 23.47 23.5758 23.0833 23.7958 22.75C24.0225 22.41 24.3125 22.1467 24.6658 21.96C25.0192 21.7733 25.4225 21.68 25.8758 21.68C26.4225 21.68 26.8892 21.8033 27.2758 22.05C27.6625 22.2967 27.9592 22.6233 28.1658 23.03C28.3725 23.4367 28.4758 23.89 28.4758 24.39C28.4758 24.9033 28.3692 25.3633 28.1558 25.77C27.9492 26.1767 27.6492 26.5 27.2558 26.74C26.8692 26.98 26.4092 27.1 25.8758 27.1ZM25.8758 26.16C26.1692 26.16 26.4258 26.0867 26.6458 25.94C26.8658 25.7867 27.0392 25.58 27.1658 25.32C27.2925 25.0533 27.3558 24.7433 27.3558 24.39C27.3558 24.03 27.2925 23.72 27.1658 23.46C27.0392 23.1933 26.8625 22.9867 26.6358 22.84C26.4092 22.6933 26.1558 22.62 25.8758 22.62C25.5958 22.62 25.3458 22.6933 25.1258 22.84C24.9125 22.9867 24.7458 23.1933 24.6258 23.46C24.5058 23.7267 24.4458 24.0367 24.4458 24.39C24.4458 24.75 24.5058 25.0633 24.6258 25.33C24.7525 25.5967 24.9225 25.8033 25.1358 25.95C25.3558 26.09 25.6025 26.16 25.8758 26.16Z" fill="#0BA0B5"/>
<path d="M0.198242 28.25H28.8058V28.75H0.198242V28.25Z" fill="#0BA0B5"/>
</svg>
