<svg width="21" height="20" viewBox="0 0 21 20" fill="none" xmlns="http://www.w3.org/2000/svg">
<path d="M6.00627 7.39932L7.04654 8.43959L9.12709 6.35905M11.7278 7.91945H15.3687M6.00627 12.6007L7.04654 13.641L9.12709 11.5604M11.7278 13.1208H15.3687M2.04038 13.0496C1.56987 11.0437 1.56987 8.95626 2.04038 6.95043C2.69187 4.17301 4.86051 2.00437 7.63793 1.35288C9.64376 0.882375 11.7312 0.882374 13.7371 1.35288C16.5145 2.00437 18.6831 4.17301 19.3346 6.95044C19.8051 8.95626 19.8051 11.0437 19.3346 13.0496C18.6831 15.827 16.5145 17.9956 13.7371 18.6471C11.7312 19.1176 9.64376 19.1176 7.63794 18.6471C4.86051 17.9956 2.69187 15.827 2.04038 13.0496Z" stroke="#000000" stroke-width="1.5" stroke-linecap="round" stroke-linejoin="round"/>
</svg>
