<svg width="1260" height="756" viewBox="0 0 1260 756" fill="none" xmlns="http://www.w3.org/2000/svg">
<g filter="url(#filter0_d_94_756)">
<path d="M3.0006 140.305L3.00061 93.1847L40.0767 93.1847C167.846 93.1847 271.783 197.122 271.783 324.891L271.783 519.893C271.783 589.085 309.181 594.07 370.76 594.07C449.698 594.07 459.816 558.408 459.816 527.333L459.816 138.197C459.816 64.1192 520.08 3.85519 594.158 3.8552C668.235 3.8552 728.499 64.1192 728.499 138.197L728.499 391.578C728.499 414.32 747 432.821 769.742 432.821L787.871 432.821C862.643 432.821 923.477 493.655 923.477 568.427L923.477 599.526C923.477 673.653 943.515 691.757 1025.63 691.757L1243 691.757L1243 738.877L1025.65 738.877C970.299 738.877 936.596 730.048 913.011 709.39C887.666 687.194 876.382 653.293 876.382 599.526L876.382 568.427C876.382 519.621 836.677 479.941 787.895 479.941L769.767 479.941C721.035 479.941 681.404 440.31 681.404 391.578L681.404 138.197C681.404 90.1096 642.27 50.9752 594.183 50.9752C546.096 50.9752 506.961 90.1095 506.961 138.197L506.961 527.333C506.961 569.865 489.279 641.19 370.784 641.19C344.348 641.19 308.164 641.19 278.404 625.715C242.742 607.189 224.688 571.577 224.688 519.869L224.688 324.866C224.688 223.087 141.88 140.28 40.1013 140.28L3.02538 140.28L3.0006 140.305Z" fill="black"/>
</g>
<path d="M3.0006 140.305L3.00061 93.1847L40.0767 93.1847C167.846 93.1847 271.783 197.122 271.783 324.891L271.783 519.893C271.783 589.085 309.181 594.07 370.76 594.07C449.698 594.07 459.816 558.408 459.816 527.333L459.816 138.197C459.816 64.1192 520.08 3.85519 594.158 3.8552C668.235 3.8552 728.499 64.1192 728.499 138.197L728.499 391.578C728.499 414.32 747 432.821 769.742 432.821L787.871 432.821C862.643 432.821 923.477 493.655 923.477 568.427L923.477 599.526C923.477 673.653 943.515 691.757 1025.63 691.757L1243 691.757L1243 738.877L1025.65 738.877C970.299 738.877 936.596 730.048 913.011 709.39C887.666 687.194 876.382 653.293 876.382 599.526L876.382 568.427C876.382 519.621 836.677 479.941 787.895 479.941L769.767 479.941C721.035 479.941 681.404 440.31 681.404 391.578L681.404 138.197C681.404 90.1096 642.27 50.9752 594.183 50.9752C546.096 50.9752 506.961 90.1095 506.961 138.197L506.961 527.333C506.961 569.865 489.279 641.19 370.784 641.19C344.348 641.19 308.164 641.19 278.404 625.715C242.742 607.189 224.688 571.577 224.688 519.869L224.688 324.866C224.688 223.087 141.88 140.28 40.1013 140.28L3.02538 140.28L3.0006 140.305Z" fill="black"/>
<path d="M3.00043 116.744L10.4404 116.744" stroke="white" stroke-miterlimit="10"/>
<path d="M25.2953 116.745L40.0762 116.745C155.024 116.745 248.222 209.943 248.222 324.891L248.222 519.893C248.222 616.067 316.794 617.63 370.759 617.63C424.749 617.63 483.376 601.684 483.376 527.333L483.376 138.197C483.376 77.015 532.976 27.415 594.158 27.415C655.339 27.415 704.939 77.015 704.939 138.197L704.939 391.578C704.939 427.364 733.955 456.38 769.741 456.38L787.895 456.38C849.771 456.38 899.941 506.551 899.941 568.427L899.941 599.526C899.941 690.864 934.314 715.317 1025.65 715.317L1228.14 715.317" stroke="white" stroke-miterlimit="10"/>
<path d="M1235.56 715.317L1243 715.317" stroke="white" stroke-miterlimit="10"/>
<defs>
<filter id="filter0_d_94_756" x="0.000976562" y="0.855225" width="1260" height="755.022" filterUnits="userSpaceOnUse" color-interpolation-filters="sRGB">
<feFlood flood-opacity="0" result="BackgroundImageFix"/>
<feColorMatrix in="SourceAlpha" type="matrix" values="0 0 0 0 0 0 0 0 0 0 0 0 0 0 0 0 0 0 127 0" result="hardAlpha"/>
<feOffset dx="7" dy="7"/>
<feGaussianBlur stdDeviation="5"/>
<feColorMatrix type="matrix" values="0 0 0 0 0 0 0 0 0 0 0 0 0 0 0 0 0 0 0.18 0"/>
<feBlend mode="normal" in2="BackgroundImageFix" result="effect1_dropShadow_94_756"/>
<feBlend mode="normal" in="SourceGraphic" in2="effect1_dropShadow_94_756" result="shape"/>
</filter>
</defs>
</svg>
