<svg width="90" height="17" viewBox="0 0 90 17" fill="none" xmlns="http://www.w3.org/2000/svg">
<path fill-rule="evenodd" clip-rule="evenodd" d="M3.1011 6.6587C3.10752 6.51364 3.11844 6.36875 3.13386 6.22424L3.13888 6.17862C3.31016 4.66696 3.97409 3.20075 5.13067 2.04138C6.68662 0.481669 8.79654 -0.18427 10.8255 0.0435556V0.0592903H10.8558V3.16318C11.5654 3.31396 12.241 3.66558 12.7921 4.21805C13.3583 4.78564 13.7131 5.48495 13.8564 6.21759L16.959 6.21149C17.179 8.2386 16.5139 10.344 14.9635 11.898C13.6691 13.1956 11.9913 13.8745 10.2956 13.935C10.0384 14.4678 9.68929 14.9673 9.24819 15.4094C7.13254 17.5302 3.70239 17.5302 1.58674 15.4094C-0.528913 13.2887 -0.528912 9.85023 1.58674 7.72947C2.03984 7.27528 2.55323 6.91835 3.1011 6.6587ZM2.69294 8.83834C2.83238 8.69856 2.97985 8.57174 3.13386 8.45787L3.13386 11.5456L3.14092 11.5456C3.1348 12.1481 3.36103 12.7525 3.81962 13.2122C4.72471 14.1195 6.19215 14.1195 7.09725 13.2122C7.48823 12.8203 7.69959 12.3273 7.75277 11.8159C7.75277 10.719 7.81423 10.44 7.74203 8.48858C7.66984 6.53712 7.48303 6.25442 8.4083 5.32692C9.31339 4.41964 10.7808 4.41964 11.6859 5.32692C12.591 6.2342 12.591 7.70518 11.6859 8.61246C11.4316 8.86737 11.1329 9.05066 10.8148 9.16233V6.94817C10.8148 6.52316 10.4711 6.17862 10.0471 6.17862C9.62312 6.17862 9.27941 6.52316 9.27941 6.94817V10.6271C9.27941 11.038 9.27477 11.45 9.25942 11.8634C9.24823 12.0112 9.22859 12.1585 9.2005 12.3045C9.10017 12.8259 8.89205 13.3305 8.57613 13.7825C8.4489 13.9645 8.30418 14.138 8.14199 14.3006C6.63727 15.8089 4.19765 15.8089 2.69294 14.3006C1.18822 12.7922 1.18822 10.3467 2.69294 8.83834ZM7.3021 4.21805C7.8744 3.64436 8.58095 3.28724 9.32037 3.14669V1.61724C8.19253 1.77026 7.10376 2.28126 6.23687 3.15025C5.81893 3.5692 5.48399 4.03984 5.23207 4.54166C4.73592 5.52993 4.65256 6.67085 4.69074 7.77601C4.70048 8.05803 4.681 9.2171 4.69074 9.37681C4.70402 9.59449 4.70048 11.4257 4.71011 11.4832C4.71973 11.5406 4.75681 11.9339 4.92582 12.1034C5.21997 12.3982 5.69689 12.3982 5.99105 12.1034C6.11591 11.9782 6.18777 11.82 6.20663 11.6568C6.20663 11.6568 6.17993 7.42981 6.20663 6.54824C6.23333 5.66667 6.71902 4.80254 7.3021 4.21805ZM10.798 10.788C10.7945 10.8047 10.7858 10.7637 10.7858 10.8374C10.7858 10.9111 10.8513 11.829 10.7831 12.3209C11.9077 12.1663 12.9928 11.6557 13.8573 10.7891C14.7093 9.93515 15.2163 8.86637 15.3784 7.7567H13.8494C13.7018 8.47662 13.3493 9.16276 12.7921 9.72133C12.226 10.2888 11.5286 10.6443 10.798 10.788Z" fill="url(#paint0_linear_124_1046)"/>
<path d="M16.6131 4.67238H14.9256C14.6675 4.12154 14.3114 3.60538 13.8573 3.15025C13.4094 2.7012 12.9022 2.34775 12.3609 2.08989V0.395547C13.3113 0.730908 14.2035 1.27952 14.9635 2.04138C15.7294 2.80913 16.2793 3.71143 16.6131 4.67238Z" fill="url(#paint1_linear_124_1046)"/>
<path d="M29.1176 3.99456C29.1448 3.92202 29.1946 3.84949 29.2672 3.77695C29.3397 3.69535 29.4666 3.65455 29.648 3.65455H30.1512C30.2328 3.65455 30.3008 3.68629 30.3552 3.74975C30.4186 3.80415 30.4504 3.87215 30.4504 3.95375C30.4504 3.99909 30.4413 4.04442 30.4232 4.08975L27.4856 12.6306C27.4312 12.7938 27.3405 12.9252 27.2136 13.025C27.0957 13.1247 26.9461 13.1746 26.7648 13.1746H26.2208C26.0394 13.1746 25.8898 13.1247 25.772 13.025C25.6541 12.9252 25.568 12.7938 25.5136 12.6306L22.5624 4.08975C22.5442 4.04442 22.5352 3.99909 22.5352 3.95375C22.5352 3.87215 22.5624 3.80415 22.6168 3.74975C22.6802 3.68629 22.7528 3.65455 22.8344 3.65455H23.3376C23.5189 3.65455 23.6458 3.69535 23.7184 3.77695C23.7909 3.84949 23.8408 3.92202 23.868 3.99456L26.4928 11.8146L29.1176 3.99456Z" fill="#454545"/>
<path d="M34.6803 3.51855C35.2333 3.51855 35.7184 3.60469 36.1355 3.77695C36.5616 3.94922 36.9197 4.16229 37.2099 4.41615C37.5091 4.66095 37.7357 4.92842 37.8899 5.21855C38.044 5.49962 38.1256 5.75349 38.1347 5.98015C38.1437 6.06175 38.1165 6.13429 38.0531 6.19775C37.9896 6.25215 37.9171 6.27935 37.8355 6.27935H37.2779C37.1781 6.27935 37.0965 6.26122 37.0331 6.22495C36.9787 6.18869 36.9197 6.10709 36.8563 5.98015C36.8109 5.88949 36.7339 5.77615 36.6251 5.64015C36.5253 5.49509 36.3848 5.35909 36.2035 5.23215C36.0312 5.09615 35.8181 4.98282 35.5643 4.89215C35.3104 4.79242 35.0157 4.74256 34.6803 4.74256C34.4264 4.74256 34.1816 4.77429 33.9459 4.83775C33.7192 4.89215 33.5152 4.97829 33.3339 5.09615C33.1525 5.21402 33.0075 5.36362 32.8987 5.54495C32.7899 5.71722 32.7355 5.92122 32.7355 6.15695C32.7355 6.39269 32.7853 6.59215 32.8851 6.75535C32.9939 6.91855 33.1616 7.06815 33.3883 7.20415C33.624 7.33109 33.9187 7.44896 34.2723 7.55775C34.6259 7.66655 35.0565 7.78895 35.5643 7.92495C36.0811 8.06095 36.5163 8.21055 36.8699 8.37375C37.2325 8.53695 37.5272 8.72282 37.7539 8.93135C37.9805 9.13082 38.1437 9.36656 38.2435 9.63856C38.3523 9.90149 38.4067 10.2007 38.4067 10.5362C38.4067 10.9442 38.316 11.3204 38.1347 11.665C37.9624 12.0004 37.7176 12.2906 37.4003 12.5354C37.0829 12.7802 36.6976 12.9706 36.2443 13.1066C35.8 13.2426 35.3013 13.3106 34.7483 13.3106C34.2224 13.3106 33.7373 13.2335 33.2931 13.0794C32.8488 12.9252 32.468 12.7258 32.1507 12.481C31.8333 12.2362 31.5795 11.9642 31.3891 11.665C31.2077 11.3658 31.1125 11.0711 31.1035 10.781C31.1035 10.6994 31.1307 10.6314 31.1851 10.577C31.2485 10.5135 31.3211 10.4818 31.4027 10.4818H31.9603C32.0509 10.4818 32.128 10.4999 32.1915 10.5362C32.264 10.5724 32.3275 10.654 32.3819 10.781C32.4363 10.9079 32.5179 11.0484 32.6267 11.2026C32.7445 11.3476 32.8987 11.4882 33.0891 11.6242C33.2795 11.7511 33.5107 11.8599 33.7827 11.9506C34.0547 12.0412 34.3765 12.0866 34.7483 12.0866C35.0656 12.0866 35.3648 12.0503 35.6459 11.9778C35.936 11.9052 36.1899 11.801 36.4075 11.665C36.6251 11.529 36.7973 11.3658 36.9243 11.1754C37.0512 10.985 37.1147 10.7719 37.1147 10.5362C37.1147 10.3004 37.0421 10.101 36.8971 9.93775C36.752 9.76549 36.5435 9.61135 36.2715 9.47535C35.9995 9.33935 35.664 9.21695 35.2651 9.10815C34.8752 8.99029 34.4309 8.86789 33.9323 8.74096C33.4789 8.62309 33.0936 8.48256 32.7763 8.31936C32.4589 8.14709 32.2005 7.95216 32.0011 7.73456C31.8016 7.51696 31.6565 7.27669 31.5659 7.01375C31.4843 6.75082 31.4435 6.46522 31.4435 6.15695C31.4435 5.82149 31.5115 5.49509 31.6475 5.17776C31.7835 4.86042 31.9829 4.57935 32.2459 4.33455C32.5179 4.08975 32.8533 3.89482 33.2523 3.74975C33.6603 3.59562 34.1363 3.51855 34.6803 3.51855Z" fill="#454545"/>
<path d="M43.9577 3.65455C44.402 3.65455 44.819 3.71349 45.2089 3.83135C45.6078 3.94015 45.9569 4.11242 46.2561 4.34815C46.5553 4.58389 46.791 4.88309 46.9633 5.24576C47.1446 5.60842 47.2353 6.03909 47.2353 6.53775C47.2353 7.03642 47.1446 7.47162 46.9633 7.84335C46.791 8.20602 46.5553 8.50975 46.2561 8.75455C45.9569 8.99935 45.6078 9.18069 45.2089 9.29855C44.819 9.41642 44.402 9.47535 43.9577 9.47535H41.4553V12.8074C41.4553 12.9071 41.419 12.9932 41.3465 13.0658C41.274 13.1383 41.1878 13.1746 41.0881 13.1746H40.5305C40.4308 13.1746 40.3446 13.1383 40.2721 13.0658C40.1996 12.9932 40.1633 12.9071 40.1633 12.8074V4.02175C40.1633 3.92202 40.1996 3.83589 40.2721 3.76335C40.3446 3.69082 40.4308 3.65455 40.5305 3.65455H43.9577ZM41.4553 8.25136H43.8897C44.5425 8.25136 45.0457 8.11082 45.3993 7.82975C45.762 7.54869 45.9433 7.11802 45.9433 6.53775C45.9433 5.95749 45.762 5.53589 45.3993 5.27295C45.0457 5.01002 44.5425 4.87855 43.8897 4.87855H41.4553V8.25136Z" fill="#454545"/>
<path d="M59.2622 7.34015C59.2712 7.74816 59.2758 8.10629 59.2758 8.41455C59.2758 8.72282 59.2712 9.08095 59.2622 9.48895C59.2531 10.0602 59.1534 10.577 58.963 11.0394C58.7726 11.4927 58.5096 11.878 58.1742 12.1954C57.8387 12.5127 57.4398 12.7575 56.9774 12.9298C56.515 13.093 56.0027 13.1746 55.4406 13.1746H52.2446C52.1448 13.1746 52.0587 13.1383 51.9862 13.0658C51.9136 12.9932 51.8774 12.9071 51.8774 12.8074V4.02175C51.8774 3.92202 51.9136 3.83589 51.9862 3.76335C52.0587 3.69082 52.1448 3.65455 52.2446 3.65455H55.359C55.9211 3.65455 56.4379 3.74069 56.9094 3.91295C57.3899 4.07615 57.8024 4.31642 58.147 4.63375C58.4915 4.95109 58.759 5.34095 58.9494 5.80335C59.1488 6.25669 59.2531 6.76895 59.2622 7.34015ZM57.9702 7.40815C57.9611 7.08175 57.9067 6.76895 57.807 6.46975C57.7163 6.16149 57.5667 5.88949 57.3582 5.65375C57.1496 5.41802 56.8776 5.23215 56.5422 5.09615C56.2067 4.95109 55.7942 4.87855 55.3046 4.87855H53.1694V11.9506H55.3726C55.8622 11.9506 56.2702 11.8826 56.5966 11.7466C56.932 11.6015 57.1995 11.4111 57.399 11.1754C57.5984 10.9396 57.739 10.6722 57.8206 10.373C57.9112 10.0647 57.9611 9.74735 57.9702 9.42095C57.9702 9.22149 57.9702 9.04469 57.9702 8.89055C57.9792 8.72735 57.9838 8.57322 57.9838 8.42816C57.9838 8.27402 57.9792 8.11989 57.9702 7.96575C57.9702 7.80255 57.9702 7.61669 57.9702 7.40815Z" fill="#454545"/>
<path d="M62.3286 12.8074C62.3286 12.9071 62.2924 12.9932 62.2198 13.0658C62.1473 13.1383 62.0612 13.1746 61.9614 13.1746H61.4582C61.3585 13.1746 61.2724 13.1383 61.1998 13.0658C61.1273 12.9932 61.091 12.9071 61.091 12.8074V6.46975C61.091 6.37002 61.1273 6.28389 61.1998 6.21135C61.2724 6.13882 61.3585 6.10255 61.4582 6.10255H61.9614C62.0612 6.10255 62.1473 6.13882 62.2198 6.21135C62.2924 6.28389 62.3286 6.37002 62.3286 6.46975V12.8074ZM62.4646 4.66095C62.4646 4.76069 62.4284 4.84682 62.3558 4.91935C62.2833 4.99189 62.1972 5.02815 62.0974 5.02815H61.3222C61.2225 5.02815 61.1364 4.99189 61.0638 4.91935C60.9913 4.84682 60.955 4.76069 60.955 4.66095V3.88575C60.955 3.78602 60.9913 3.69989 61.0638 3.62735C61.1364 3.55482 61.2225 3.51855 61.3222 3.51855H62.0974C62.1972 3.51855 62.2833 3.55482 62.3558 3.62735C62.4284 3.69989 62.4646 3.78602 62.4646 3.88575V4.66095Z" fill="#454545"/>
<path d="M64.0315 9.18975C64.0587 8.69109 64.1539 8.24229 64.3171 7.84335C64.4803 7.44442 64.6979 7.10895 64.9699 6.83695C65.2419 6.55589 65.5592 6.34282 65.9219 6.19775C66.2937 6.04362 66.6926 5.96655 67.1187 5.96655C67.6808 5.96655 68.1297 6.06629 68.4651 6.26575C68.8006 6.45615 69.0544 6.66469 69.2267 6.89135V6.46975C69.2267 6.37002 69.263 6.28389 69.3355 6.21135C69.4081 6.13882 69.4942 6.10255 69.5939 6.10255H70.0971C70.1968 6.10255 70.283 6.13882 70.3555 6.21135C70.4281 6.28389 70.4643 6.37002 70.4643 6.46975V13.0794C70.4643 14.0223 70.1968 14.7703 69.6619 15.3234C69.127 15.8855 68.3246 16.1666 67.2547 16.1666C66.7107 16.1666 66.2438 16.0986 65.8539 15.9626C65.4731 15.8356 65.1558 15.6724 64.9019 15.473C64.6571 15.2735 64.4712 15.0559 64.3443 14.8202C64.2264 14.5844 64.163 14.3578 64.1539 14.1402C64.1448 14.0404 64.1766 13.9543 64.2491 13.8818C64.3307 13.8092 64.4214 13.773 64.5211 13.773H64.9291C65.0288 13.773 65.1105 13.7956 65.1739 13.841C65.2464 13.8954 65.3144 13.9951 65.3779 14.1402C65.4051 14.1946 65.4459 14.2671 65.5003 14.3578C65.5638 14.4575 65.659 14.5527 65.7859 14.6434C65.9219 14.7431 66.0942 14.8247 66.3027 14.8882C66.5203 14.9607 66.7923 14.997 67.1187 14.997C67.4179 14.997 67.6945 14.9652 67.9483 14.9018C68.2113 14.8474 68.4379 14.7522 68.6283 14.6162C68.8187 14.4802 68.9638 14.2988 69.0635 14.0722C69.1723 13.8455 69.2267 13.569 69.2267 13.2426V12.3858C69.0454 12.6306 68.787 12.8482 68.4515 13.0386C68.1161 13.2199 67.6718 13.3106 67.1187 13.3106C66.6926 13.3106 66.2937 13.238 65.9219 13.093C65.5592 12.9388 65.2419 12.7258 64.9699 12.4538C64.6979 12.1727 64.4803 11.8327 64.3171 11.4338C64.1539 11.0348 64.0587 10.586 64.0315 10.0874C64.0224 9.95135 64.0179 9.80175 64.0179 9.63856C64.0179 9.47536 64.0224 9.32576 64.0315 9.18975ZM69.2267 9.14895C69.1995 8.50522 69.0046 8.01109 68.6419 7.66655C68.2883 7.31295 67.8259 7.13615 67.2547 7.13615C66.6563 7.13615 66.1848 7.32655 65.8403 7.70736C65.4958 8.08815 65.3054 8.60496 65.2691 9.25776C65.2601 9.51162 65.2601 9.76549 65.2691 10.0194C65.3054 10.6722 65.4958 11.189 65.8403 11.5698C66.1848 11.9506 66.6563 12.141 67.2547 12.141C67.8259 12.141 68.2883 11.9642 68.6419 11.6106C69.0046 11.257 69.1995 10.7628 69.2267 10.1282C69.2358 9.99216 69.2403 9.82896 69.2403 9.63856C69.2403 9.44815 69.2358 9.28495 69.2267 9.14895Z" fill="#454545"/>
<path d="M73.7372 12.8074C73.7372 12.9071 73.701 12.9932 73.6284 13.0658C73.5559 13.1383 73.4698 13.1746 73.37 13.1746H72.8668C72.7671 13.1746 72.681 13.1383 72.6084 13.0658C72.5359 12.9932 72.4996 12.9071 72.4996 12.8074V6.46975C72.4996 6.37002 72.5359 6.28389 72.6084 6.21135C72.681 6.13882 72.7671 6.10255 72.8668 6.10255H73.37C73.4698 6.10255 73.5559 6.13882 73.6284 6.21135C73.701 6.28389 73.7372 6.37002 73.7372 6.46975V12.8074ZM73.8732 4.66095C73.8732 4.76069 73.837 4.84682 73.7644 4.91935C73.6919 4.99189 73.6058 5.02815 73.506 5.02815H72.7308C72.6311 5.02815 72.545 4.99189 72.4724 4.91935C72.3999 4.84682 72.3636 4.76069 72.3636 4.66095V3.88575C72.3636 3.78602 72.3999 3.69989 72.4724 3.62735C72.545 3.55482 72.6311 3.51855 72.7308 3.51855H73.506C73.6058 3.51855 73.6919 3.55482 73.7644 3.62735C73.837 3.69989 73.8732 3.78602 73.8732 3.88575V4.66095Z" fill="#454545"/>
<path d="M77.6297 10.7946C77.6297 10.9668 77.6433 11.13 77.6705 11.2842C77.7068 11.4292 77.7657 11.5562 77.8473 11.665C77.9289 11.7738 78.0422 11.8599 78.1873 11.9234C78.3414 11.9778 78.5364 12.005 78.7721 12.005H79.4929C79.5926 12.005 79.6788 12.0412 79.7513 12.1138C79.8238 12.1863 79.8601 12.2724 79.8601 12.3722V12.8074C79.8601 12.9071 79.8238 12.9932 79.7513 13.0658C79.6788 13.1383 79.5926 13.1746 79.4929 13.1746H78.6361C77.8473 13.1746 77.2761 12.9706 76.9225 12.5626C76.5689 12.1546 76.3921 11.5652 76.3921 10.7946V7.27215H75.3857C75.286 7.27215 75.1998 7.23589 75.1273 7.16335C75.0548 7.09082 75.0185 7.00469 75.0185 6.90495V6.46975C75.0185 6.37002 75.0548 6.28389 75.1273 6.21135C75.1998 6.13882 75.286 6.10255 75.3857 6.10255H76.3921V3.88575C76.3921 3.78602 76.4284 3.69989 76.5009 3.62735C76.5734 3.55482 76.6596 3.51855 76.7593 3.51855H77.2625C77.3622 3.51855 77.4484 3.55482 77.5209 3.62735C77.5934 3.69989 77.6297 3.78602 77.6297 3.88575V6.10255H79.3569C79.4566 6.10255 79.5428 6.13882 79.6153 6.21135C79.6878 6.28389 79.7241 6.37002 79.7241 6.46975V6.90495C79.7241 7.00469 79.6878 7.09082 79.6153 7.16335C79.5428 7.23589 79.4566 7.27215 79.3569 7.27215H77.6297V10.7946Z" fill="#454545"/>
<path d="M80.7222 11.393C80.7222 11.0303 80.7948 10.713 80.9398 10.441C81.0849 10.169 81.2844 9.93776 81.5382 9.74736C81.7921 9.55696 82.0868 9.40282 82.4222 9.28495C82.7668 9.16709 83.1294 9.07642 83.5102 9.01296L85.4278 8.70016V8.52336C85.4278 8.06096 85.2737 7.71642 84.9654 7.48976C84.6662 7.25402 84.29 7.13615 83.8366 7.13615C83.4377 7.13615 83.134 7.20869 82.9254 7.35375C82.726 7.49882 82.5537 7.67109 82.4086 7.87056C82.3542 7.94309 82.2953 7.99295 82.2318 8.02015C82.1684 8.04735 82.0822 8.06095 81.9734 8.06095H81.5654C81.4657 8.06095 81.375 8.02469 81.2934 7.95216C81.2209 7.87962 81.1892 7.79349 81.1982 7.69376C81.2164 7.49429 81.2934 7.29029 81.4294 7.08175C81.5745 6.87322 81.7649 6.68735 82.0006 6.52415C82.2454 6.36095 82.522 6.22949 82.8302 6.12976C83.1476 6.02095 83.483 5.96655 83.8366 5.96655C84.2446 5.96655 84.6209 6.02549 84.9654 6.14335C85.319 6.26122 85.6182 6.43349 85.863 6.66015C86.1169 6.88682 86.3118 7.16789 86.4478 7.50335C86.5929 7.83882 86.6654 8.22415 86.6654 8.65935V12.8074C86.6654 12.9071 86.6292 12.9932 86.5566 13.0658C86.4841 13.1383 86.398 13.1746 86.2982 13.1746H85.795C85.6953 13.1746 85.6092 13.1383 85.5366 13.0658C85.4641 12.9932 85.4278 12.9071 85.4278 12.8074V12.2498C85.3462 12.422 85.2193 12.5762 85.047 12.7122C84.8748 12.8391 84.6753 12.9479 84.4486 13.0386C84.231 13.1292 83.9998 13.1972 83.755 13.2426C83.5193 13.2879 83.2972 13.3106 83.0886 13.3106C82.735 13.3106 82.4086 13.2607 82.1094 13.161C81.8193 13.0612 81.57 12.9298 81.3614 12.7666C81.162 12.5943 81.0033 12.3903 80.8854 12.1546C80.7766 11.9188 80.7222 11.665 80.7222 11.393ZM83.2246 12.141C83.551 12.141 83.8502 12.0911 84.1222 11.9914C84.3942 11.8916 84.6254 11.7556 84.8158 11.5834C85.0153 11.402 85.1649 11.189 85.2646 10.9442C85.3734 10.6994 85.4278 10.4274 85.4278 10.1282V9.78815L83.823 10.0466C83.2518 10.1372 82.7985 10.2823 82.463 10.4818C82.1276 10.6812 81.9598 10.9396 81.9598 11.257C81.9598 11.3567 81.9825 11.4564 82.0278 11.5562C82.0732 11.6559 82.1457 11.7511 82.2454 11.8418C82.3452 11.9324 82.4721 12.005 82.6262 12.0594C82.7894 12.1138 82.9889 12.141 83.2246 12.141Z" fill="#454545"/>
<path d="M89.8872 12.8074C89.8872 12.9071 89.851 12.9932 89.7784 13.0658C89.7059 13.1383 89.6198 13.1746 89.52 13.1746H89.0168C88.9171 13.1746 88.831 13.1383 88.7584 13.0658C88.6859 12.9932 88.6496 12.9071 88.6496 12.8074V3.88575C88.6496 3.78602 88.6859 3.69989 88.7584 3.62735C88.831 3.55482 88.9171 3.51855 89.0168 3.51855H89.52C89.6198 3.51855 89.7059 3.55482 89.7784 3.62735C89.851 3.69989 89.8872 3.78602 89.8872 3.88575V12.8074Z" fill="#454545"/>
<defs>
<linearGradient id="paint0_linear_124_1046" x1="16.8316" y1="7.05133" x2="0.260507" y2="7.05133" gradientUnits="userSpaceOnUse">
<stop stop-color="#F19A38"/>
<stop offset="1" stop-color="#EB4626"/>
</linearGradient>
<linearGradient id="paint1_linear_124_1046" x1="16.8316" y1="7.05133" x2="0.260507" y2="7.05133" gradientUnits="userSpaceOnUse">
<stop stop-color="#F19A38"/>
<stop offset="1" stop-color="#EB4626"/>
</linearGradient>
</defs>
</svg>
