<svg width="20" height="20" viewBox="0 0 20 20" fill="none" xmlns="http://www.w3.org/2000/svg">
<circle cx="10" cy="10" r="10" fill="#0BA0B5"/>
<path d="M5.02336 9.49857C5.02336 9.49857 9.20041 7.7912 10.6491 7.19C11.2044 6.94953 13.0877 6.17999 13.0877 6.17999C13.0877 6.17999 13.9569 5.84334 13.8845 6.66094C13.8603 6.99763 13.6672 8.17594 13.474 9.45048C13.1843 11.2541 12.8704 13.226 12.8704 13.226C12.8704 13.226 12.8221 13.7791 12.4117 13.8753C12.0012 13.9714 11.3251 13.5386 11.2044 13.4424C11.1078 13.3703 9.39356 12.2881 8.7658 11.759C8.59678 11.6148 8.40363 11.3262 8.78992 10.9895C9.65915 10.196 10.6974 9.21001 11.3251 8.58478C11.6149 8.29619 11.9046 7.62286 10.6974 8.44047C8.9831 9.61882 7.29297 10.725 7.29297 10.725C7.29297 10.725 6.90664 10.9655 6.18231 10.749C5.45794 10.5326 4.61287 10.2441 4.61287 10.2441C4.61287 10.2441 4.03343 9.88334 5.02336 9.49857Z" fill="white"/>
</svg>
