<svg width="20" height="20" viewBox="0 0 20 20" fill="none" xmlns="http://www.w3.org/2000/svg">
<circle cx="10" cy="10" r="10" fill="#0BA0B5"/>
<path d="M9.85676 14.1241H10.5884C10.5884 14.1241 10.8083 14.0985 10.9209 13.9758C11.0234 13.8632 11.0234 13.6534 11.0234 13.6534C11.0234 13.6534 11.008 12.671 11.4633 12.5277C11.9137 12.3843 12.4918 13.4796 13.1006 13.8992C13.5612 14.2164 13.9144 14.1499 13.9144 14.1499L15.5517 14.1293C15.5517 14.1293 16.4064 14.0783 16.0022 13.4026C15.9714 13.3463 15.7668 12.9064 14.7841 11.9954C13.7556 11.0435 13.8938 11.197 15.1321 9.54955C15.8843 8.54659 16.1861 7.93251 16.0941 7.67162C16.0022 7.42088 15.4493 7.48733 15.4493 7.48733L13.607 7.49747C13.607 7.49747 13.4689 7.47684 13.3664 7.53839C13.2692 7.59993 13.2028 7.73807 13.2028 7.73807C13.2028 7.73807 12.9111 8.51582 12.5222 9.17606C11.7036 10.5679 11.371 10.6448 11.2378 10.5578C10.9255 10.3581 11.0024 9.74923 11.0024 9.3142C11.0024 7.96328 11.207 7.40025 10.6034 7.25722C10.4037 7.21106 10.2554 7.17539 9.74381 7.17015C9.08356 7.1649 8.53103 7.17015 8.21384 7.32891C8.00402 7.43138 7.84035 7.66148 7.94247 7.67162C8.06522 7.68701 8.34148 7.74821 8.48486 7.943C8.67406 8.19898 8.66916 8.77705 8.66916 8.77705C8.66916 8.77705 8.77652 10.3686 8.41317 10.563C8.16243 10.6959 7.82462 10.4196 7.09303 9.15578C6.71955 8.50602 6.43279 7.79472 6.43279 7.79472C6.43279 7.79472 6.37648 7.66183 6.27926 7.59014C6.16141 7.50307 5.99775 7.47754 5.99775 7.47754L4.24782 7.48768C4.24782 7.48768 3.98694 7.49292 3.88972 7.61043C3.80264 7.71289 3.88447 7.92271 3.88447 7.92271C3.88447 7.92271 5.25602 11.1313 6.80627 12.7483C8.23972 14.2213 9.85676 14.1241 9.85676 14.1241Z" fill="white"/>
</svg>
